<svg width="64" height="64" viewBox="0 0 64 64" fill="none" xmlns="http://www.w3.org/2000/svg">
<path d="M32.0002 5.33337C26.726 5.33337 21.5703 6.89735 17.185 9.82752C12.7997 12.7577 9.38172 16.9225 7.36339 21.7951C5.34505 26.6678 4.81696 32.0296 5.8459 37.2024C6.87484 42.3753 9.41459 47.1268 13.144 50.8562C16.8734 54.5856 21.6249 57.1254 26.7978 58.1543C31.9706 59.1833 37.3324 58.6552 42.2051 56.6368C47.0778 54.6185 51.2425 51.2006 54.1727 46.8152C57.1029 42.4299 58.6668 37.2742 58.6668 32C58.6668 28.4981 57.9771 25.0305 56.637 21.7951C55.2968 18.5598 53.3326 15.6201 50.8564 13.1439C48.3801 10.6676 45.4404 8.70338 42.2051 7.36325C38.9697 6.02313 35.5021 5.33337 32.0002 5.33337ZM41.8855 38.1147C42.1402 38.3607 42.3434 38.6549 42.4831 38.9803C42.6229 39.3056 42.6964 39.6556 42.6995 40.0096C42.7026 40.3637 42.6351 40.7149 42.501 41.0426C42.367 41.3703 42.1689 41.668 41.9186 41.9184C41.6682 42.1688 41.3704 42.3668 41.0427 42.5009C40.715 42.635 40.3639 42.7025 40.0098 42.6994C39.6557 42.6963 39.3058 42.6227 38.9804 42.483C38.6551 42.3432 38.3608 42.1401 38.1148 41.8854L32.0002 35.7707L25.8855 41.8854C25.3826 42.3711 24.709 42.6399 24.0098 42.6338C23.3106 42.6278 22.6417 42.3473 22.1473 41.8529C21.6529 41.3585 21.3725 40.6896 21.3664 39.9904C21.3603 39.2912 21.6291 38.6176 22.1148 38.1147L28.2295 32L22.1148 25.8854C21.6291 25.3824 21.3603 24.7088 21.3664 24.0096C21.3725 23.3104 21.6529 22.6416 22.1473 22.1472C22.6417 21.6528 23.3106 21.3723 24.0098 21.3662C24.709 21.3602 25.3826 21.629 25.8855 22.1147L32.0002 28.2294L38.1148 22.1147C38.6178 21.629 39.2914 21.3602 39.9906 21.3662C40.6898 21.3723 41.3586 21.6528 41.853 22.1472C42.3474 22.6416 42.6279 23.3104 42.634 24.0096C42.64 24.7088 42.3713 25.3824 41.8855 25.8854L35.7708 32L41.8855 38.1147Z" fill="#AA9784"/>
</svg>
