<svg width="30" height="25" viewBox="0 0 30 25" fill="none" xmlns="http://www.w3.org/2000/svg">
<path d="M22.3126 16.6341L25.9837 2.25949H30V0H24.2288L23.3634 3.38857L0 3.37185L2.48387 16.634H22.3126V16.6341ZM22.7865 5.64765L20.5576 14.3746H4.35945L2.72228 5.6333L22.7865 5.64765Z" fill="#AA9784"/>
<path d="M19.2194 24.8684C21.2118 24.8684 22.8327 23.2474 22.8327 21.255C22.8327 19.2627 21.2118 17.6418 19.2194 17.6418H5.60599C3.61362 17.6418 1.99268 19.2627 1.99268 21.255C1.99268 23.2474 3.61359 24.8684 5.60599 24.8684C7.59839 24.8684 9.21928 23.2474 9.21928 21.255C9.21928 20.7766 9.12554 20.3196 8.95588 19.9013H15.8695C15.6999 20.3196 15.6061 20.7766 15.6061 21.255C15.6061 23.2474 17.2271 24.8684 19.2194 24.8684ZM6.95979 21.255C6.95979 22.0016 6.35249 22.6089 5.60599 22.6089C4.8595 22.6089 4.25216 22.0016 4.25216 21.255C4.25216 20.5086 4.85947 19.9013 5.60599 19.9013C6.35249 19.9013 6.95979 20.5086 6.95979 21.255ZM20.5733 21.255C20.5733 22.0016 19.966 22.6089 19.2195 22.6089C18.473 22.6089 17.8657 22.0016 17.8657 21.255C17.8657 20.5086 18.473 19.9013 19.2195 19.9013C19.966 19.9013 20.5733 20.5086 20.5733 21.255Z" fill="#AA9784"/>
</svg>
