<?xml version="1.0" standalone="no"?>
<!DOCTYPE svg PUBLIC "-//W3C//DTD SVG 20010904//EN"
 "http://www.w3.org/TR/2001/REC-SVG-20010904/DTD/svg10.dtd">
<svg version="1.0" xmlns="http://www.w3.org/2000/svg"
 width="813.000000pt" height="194.000000pt" viewBox="0 0 813.000000 194.000000"
 preserveAspectRatio="xMidYMid meet">

<g transform="translate(0.000000,194.000000) scale(0.100000,-0.100000)"
fill="#000000" stroke="none">
<path d="M5256 1603 c-109 -129 -199 -202 -329 -265 -71 -35 -200 -81 -272
-98 -27 -6 -66 -15 -85 -20 -41 -11 -188 -40 -201 -40 -20 0 -4 23 121 171
122 145 149 189 116 189 -16 0 -76 -67 -223 -250 l-101 -125 -104 -17 c-212
-35 -288 -97 -203 -165 19 -15 49 -33 67 -39 17 -6 33 -15 35 -20 1 -5 -49
-71 -112 -148 -63 -76 -115 -142 -115 -147 0 -17 18 -18 37 -1 10 9 59 66 108
126 50 60 99 120 111 134 l20 24 180 -45 c190 -48 366 -104 443 -140 74 -34
170 -93 204 -124 18 -16 38 -32 45 -37 16 -10 42 11 42 34 0 25 -89 101 -164
142 -146 79 -267 120 -575 199 -63 16 -116 31 -118 33 -4 4 26 41 85 106 12
14 22 28 22 32 0 17 50 38 110 47 74 12 256 51 345 75 233 63 418 162 519 278
50 57 57 82 26 98 -15 8 -23 7 -34 -7z m-1016 -481 c0 -15 -103 -132 -116
-132 -21 0 -88 33 -101 50 -16 21 5 43 59 57 24 6 59 16 78 21 44 12 80 14 80
4z"/>
</g>
</svg>
