<?xml version="1.0" standalone="no"?>
<!DOCTYPE svg PUBLIC "-//W3C//DTD SVG 20010904//EN"
 "http://www.w3.org/TR/2001/REC-SVG-20010904/DTD/svg10.dtd">
<svg version="1.0" xmlns="http://www.w3.org/2000/svg"
 width="813.000000pt" height="194.000000pt" viewBox="0 0 813.000000 194.000000"
 preserveAspectRatio="xMidYMid meet">

<g transform="translate(0.000000,194.000000) scale(0.100000,-0.100000)"
fill="#000000" stroke="none">
<path d="M5256 1603 c-109 -129 -199 -202 -329 -265 -71 -35 -200 -81 -272
-98 -27 -6 -66 -15 -85 -20 -41 -11 -188 -40 -201 -40 -20 0 -4 23 121 171
122 145 149 189 116 189 -16 0 -76 -67 -223 -250 l-101 -125 -104 -17 c-212
-35 -288 -97 -203 -165 19 -15 49 -33 67 -39 17 -6 33 -15 35 -20 1 -5 -49
-71 -112 -148 -63 -76 -115 -142 -115 -147 0 -17 18 -18 37 -1 10 9 59 66 108
126 50 60 99 120 111 134 l20 24 180 -45 c190 -48 366 -104 443 -140 74 -34
170 -93 204 -124 18 -16 38 -32 45 -37 16 -10 42 11 42 34 0 25 -89 101 -164
142 -146 79 -267 120 -575 199 -63 16 -116 31 -118 33 -4 4 26 41 85 106 12
14 22 28 22 32 0 17 50 38 110 47 74 12 256 51 345 75 233 63 418 162 519 278
50 57 57 82 26 98 -15 8 -23 7 -34 -7z m-1016 -481 c0 -15 -103 -132 -116
-132 -21 0 -88 33 -101 50 -16 21 5 43 59 57 24 6 59 16 78 21 44 12 80 14 80
4z"/>
<path d="M830 1545 c-278 -33 -526 -170 -702 -386 -21 -25 -58 -85 -83 -134
l-45 -89 0 -109 c0 -92 3 -115 20 -142 28 -45 86 -82 150 -96 60 -13 194 -7
250 11 112 37 250 105 349 173 l44 30 -6 -48 c-25 -183 211 -197 448 -27 55
40 66 52 59 64 -3 5 -33 -11 -67 -35 -96 -67 -171 -98 -253 -104 -64 -5 -74
-3 -93 16 -17 17 -21 33 -21 85 0 58 3 69 35 110 19 26 35 50 35 55 0 27 -27
19 -68 -22 -86 -82 -239 -179 -362 -230 -171 -70 -341 -50 -417 50 -26 34 -28
43 -28 134 0 96 0 98 49 194 39 77 66 114 135 184 164 168 334 254 568 287
112 15 159 13 256 -13 72 -20 139 -80 158 -142 31 -103 -35 -247 -172 -374
-79 -74 -90 -97 -46 -97 58 0 197 131 246 231 86 177 47 312 -114 392 -44 22
-169 49 -207 46 -7 -1 -60 -7 -118 -14z"/>
<path d="M7975 1511 c-218 -104 -520 -440 -601 -668 -39 -113 -30 -181 30
-210 30 -14 41 -14 80 -3 53 15 114 64 141 114 l20 36 95 0 c70 0 101 4 118
16 12 8 22 19 22 25 0 5 -57 9 -135 9 l-135 0 0 -29 c0 -54 -82 -141 -135
-141 -27 0 -65 35 -65 60 0 11 10 25 23 31 149 79 432 320 577 494 112 135
120 150 120 227 l0 68 -47 0 c-32 0 -68 -10 -108 -29z m109 -26 c22 -58 -111
-252 -290 -426 -116 -111 -312 -262 -368 -282 -16 -7 -18 -3 -11 30 35 185
378 596 568 678 43 19 93 19 101 0z"/>
<path d="M3256 956 c-41 -87 9 -109 129 -56 28 12 44 24 38 27 -7 3 -27 -3
-44 -11 -40 -20 -88 -21 -95 -2 -3 8 2 25 10 38 9 14 13 28 9 31 -14 15 -32 5
-47 -27z"/>
<path d="M2875 904 c-67 -25 -141 -62 -155 -78 -15 -19 -6 -46 15 -46 22 0 18
-22 -10 -49 -28 -26 -32 -62 -10 -81 22 -18 113 -7 210 24 90 30 113 41 102
52 -4 4 -37 -2 -72 -15 -90 -30 -155 -37 -180 -17 -26 20 -12 44 39 69 47 22
46 51 -2 55 -41 4 -34 16 25 42 55 24 62 25 78 3 11 -14 16 -15 44 -3 24 9 31
18 29 34 -4 27 -55 31 -113 10z"/>
<path d="M2085 892 c-76 -26 -140 -67 -179 -115 -37 -45 -127 -88 -189 -91
-30 -1 -32 1 -31 31 1 17 11 45 23 61 24 35 27 62 7 62 -15 0 -76 -58 -76 -72
0 -5 -27 -8 -60 -8 -55 0 -75 10 -50 25 13 8 13 45 0 45 -5 0 -49 -22 -97 -50
-48 -27 -92 -50 -99 -50 -6 0 -17 -7 -24 -15 -20 -24 13 -19 70 10 28 14 50
23 50 20 0 -3 -10 -24 -22 -45 -17 -30 -20 -42 -11 -51 15 -15 29 -5 59 42
l24 39 69 0 68 0 -1 -36 c-1 -51 18 -62 86 -45 52 13 104 32 142 53 16 8 23 6
39 -16 22 -30 49 -33 107 -10 23 9 43 14 46 12 2 -3 -12 -27 -33 -54 -20 -27
-37 -50 -38 -52 -2 -2 -36 -12 -76 -24 -267 -75 -489 -277 -507 -458 -4 -43
-1 -55 18 -75 13 -14 32 -25 42 -25 22 0 79 36 133 84 22 20 44 36 48 36 4 0
5 -15 2 -33 -8 -42 19 -79 57 -79 87 0 196 98 389 348 l142 184 79 0 c75 0 78
1 78 24 0 21 -6 24 -50 30 -27 4 -50 11 -50 15 0 5 30 45 66 90 55 67 74 83
117 99 87 32 97 34 112 22 25 -20 17 -47 -22 -79 -43 -35 -95 -41 -125 -15
-15 14 -20 15 -33 4 -9 -7 -15 -23 -13 -34 7 -51 163 -7 243 68 41 39 45 69 9
92 -22 15 -32 15 -82 4 -31 -7 -63 -15 -69 -17 -8 -3 -13 3 -13 16 0 39 -37
25 -76 -29 -22 -30 -55 -61 -83 -76 -67 -36 -109 -63 -183 -116 -57 -41 -108
-61 -108 -43 0 4 29 42 65 86 36 45 65 85 65 90 0 12 -27 12 -35 0 -11 -19
-99 -61 -126 -61 -24 0 -29 4 -29 23 0 44 133 147 190 147 24 0 25 -8 3 -32
-12 -14 -14 -21 -5 -30 15 -15 58 7 80 39 33 51 -36 69 -133 35z m178 -237
c-37 -53 -39 -55 -85 -55 -27 0 -48 4 -48 9 0 11 140 100 158 101 8 0 -3 -23
-25 -55z m-93 -121 c0 -20 -191 -256 -289 -358 -121 -126 -191 -152 -191 -72
0 89 106 238 268 378 l67 57 73 1 c39 0 72 -3 72 -6z m-261 -21 c0 -8 -20 -32
-175 -214 -87 -103 -239 -249 -258 -249 -69 0 -27 176 67 279 36 39 127 103
192 134 92 45 176 69 174 50z"/>
<path d="M5225 846 c-88 -58 -153 -153 -140 -203 4 -18 12 -23 40 -23 37 0
116 32 135 56 8 9 25 12 54 8 50 -7 170 18 227 47 43 22 49 14 19 -24 -23 -29
-26 -67 -5 -67 8 0 28 20 45 45 l31 45 64 0 64 0 3 -36 c4 -51 24 -61 90 -45
29 8 71 22 93 32 50 23 76 24 69 4 -4 -8 -3 -26 0 -40 5 -21 12 -25 41 -25 37
0 116 32 135 56 8 9 25 12 54 8 48 -7 177 19 210 41 11 8 29 15 39 15 16 0 15
-4 -7 -36 -24 -36 -25 -64 -2 -64 7 0 26 20 44 45 l32 45 64 0 65 0 3 -36 c4
-51 24 -61 90 -45 29 8 71 22 93 32 56 26 63 24 67 -18 3 -33 6 -38 32 -41 40
-5 66 3 111 34 32 22 52 26 114 28 74 2 131 19 131 39 0 5 -12 6 -27 2 -46
-12 -133 -17 -133 -8 0 4 12 26 25 48 29 47 32 83 8 91 -10 3 -27 10 -39 16
-31 15 -93 -21 -151 -87 -34 -39 -55 -55 -74 -55 -14 0 -29 -4 -35 -8 -16 -15
-124 -44 -139 -38 -22 8 -18 33 16 92 28 49 29 55 13 61 -13 5 -27 -5 -54 -35
-34 -40 -38 -42 -93 -42 -53 0 -71 10 -47 25 13 8 13 45 0 45 -6 0 -34 -15
-63 -33 -65 -41 -101 -57 -152 -69 -54 -13 -145 -21 -145 -13 0 3 14 26 31 51
34 49 35 87 4 92 -11 2 -30 8 -41 13 -30 15 -76 -11 -147 -84 -32 -33 -60 -57
-63 -54 -3 3 -30 -6 -60 -19 -30 -13 -72 -27 -94 -30 -39 -6 -40 -6 -40 23 0
17 11 47 25 67 28 42 32 66 11 66 -15 0 -76 -58 -76 -72 0 -5 -27 -8 -61 -8
-54 0 -60 2 -54 18 18 43 18 52 -3 52 -12 0 -23 -4 -26 -9 -12 -19 -143 -85
-186 -94 -61 -12 -150 -20 -150 -14 0 3 14 28 31 55 35 57 35 85 -1 90 -14 2
-29 8 -34 13 -16 15 -29 11 -81 -25z m65 -4 c0 -5 -7 -17 -15 -28 -8 -10 -15
-38 -15 -61 0 -38 -4 -45 -39 -69 -48 -31 -75 -29 -79 8 -3 21 10 40 61 92 59
60 87 79 87 58z m930 1 c0 -5 -7 -17 -15 -27 -8 -11 -15 -39 -15 -63 0 -38 -4
-45 -37 -68 -43 -28 -71 -32 -79 -10 -11 27 17 74 73 125 51 47 73 60 73 43z
m920 3 c0 -2 -7 -21 -16 -42 -9 -21 -13 -50 -10 -66 5 -24 0 -31 -34 -53 -44
-28 -63 -31 -78 -12 -7 8 -7 21 1 40 18 42 137 158 137 133z m-1805 -26 c8
-13 -26 -71 -37 -64 -12 8 -10 48 4 62 15 15 25 15 33 2z m930 0 c7 -12 -22
-70 -35 -70 -13 0 -13 36 0 61 12 21 25 25 35 9z m932 -6 c2 -5 -8 -22 -22
-39 l-24 -30 -1 31 c0 42 36 72 47 38z"/>
<path d="M3086 769 c-48 -54 -53 -67 -35 -101 15 -28 68 -19 147 26 33 19 63
32 66 28 3 -3 6 -18 6 -32 0 -40 22 -54 71 -46 53 9 199 65 199 77 0 11 -33
12 -45 1 -6 -5 -37 -17 -69 -27 -87 -26 -105 -6 -81 93 10 45 -3 42 -83 -19
-89 -69 -126 -86 -147 -69 -22 18 -19 35 15 73 27 31 30 47 9 47 -4 0 -28 -23
-53 -51z"/>
</g>
</svg>
