<svg width="27" height="27" viewBox="0 0 27 27" fill="none" xmlns="http://www.w3.org/2000/svg">
<path fill-rule="evenodd" clip-rule="evenodd" d="M13.5 0C6.04463 0 0 6.04463 0 13.5C0 20.9554 6.04463 27 13.5 27C20.9554 27 27 20.9554 27 13.5C27 6.04463 20.9554 0 13.5 0ZM19.7572 9.18113C19.5548 11.3153 18.675 16.4959 18.2284 18.8865C18.0394 19.899 17.6659 20.2376 17.3059 20.2703C16.5217 20.3422 15.9266 19.7516 15.1673 19.2544C13.9792 18.4759 13.3076 17.991 12.1545 17.2305C10.8214 16.3519 11.6854 15.8692 12.4447 15.0806C12.6439 14.8736 16.0976 11.7315 16.1651 11.4469C16.173 11.4109 16.182 11.2781 16.1021 11.2084C16.0222 11.1386 15.9064 11.1623 15.8231 11.1814C15.7039 11.2084 13.806 12.4628 10.1284 14.9445C9.5895 15.3146 9.10125 15.4946 8.66363 15.4856C8.18213 15.4755 7.25513 15.2134 6.5655 14.9884C5.72062 14.7139 5.04787 14.5676 5.10638 14.1019C5.13675 13.8589 5.47088 13.6102 6.10988 13.356C10.0451 11.6415 12.6698 10.5109 13.9826 9.96413C17.7323 8.40488 18.5107 8.13375 19.0193 8.12475C19.656 8.11575 19.809 8.64113 19.7572 9.18113Z" fill="#AA9784"/>
</svg>
