<svg width="27" height="27" viewBox="0 0 27 27" fill="none" xmlns="http://www.w3.org/2000/svg">
<path d="M25.1055 1.8945C23.211 0 20.1611 0 14.0625 0H12.9375C6.83887 0 3.789 0 1.8945 1.8945C0 3.789 0 6.83887 0 12.9375V14.0625C0 20.1611 0 23.2099 1.8945 25.1055C3.789 27.0011 6.83887 27 12.9375 27H14.0625C20.1611 27 23.2099 27 25.1055 25.1055C27 23.211 27 20.1611 27 14.0625V12.9375C27 6.83887 27 3.789 25.1055 1.8945ZM21.9409 19.125H19.9721C19.2218 19.125 19.0012 18.5265 17.6659 17.1911C16.497 16.065 15.9964 15.9187 15.705 15.9187C15.3079 15.9187 15.1897 16.0312 15.1897 16.5938V18.3589C15.1897 18.8426 15.0356 19.125 13.7835 19.125C11.6978 19.125 9.405 17.8582 7.77713 15.5228C5.33588 12.1016 4.66875 9.51525 4.66875 8.99438C4.66875 8.70187 4.78125 8.4375 5.34375 8.4375H7.31362C7.8165 8.4375 8.0055 8.658 8.1945 9.2025C9.1575 12.0071 10.782 14.4585 11.4491 14.4585C11.6989 14.4585 11.8136 14.3426 11.8136 13.7081V10.809C11.7405 9.47475 11.0306 9.3645 11.0306 8.88975C11.0306 8.67037 11.2185 8.4375 11.5312 8.4375H14.6261C15.0435 8.4375 15.1886 8.66025 15.1886 9.16087V13.0612C15.1886 13.4775 15.3698 13.6237 15.4946 13.6237C15.7455 13.6237 15.9536 13.4775 16.4126 13.0185C17.8312 11.4334 18.8325 8.99325 18.8325 8.99325C18.9585 8.70075 19.188 8.43637 19.6898 8.43637H21.6585C22.2536 8.43637 22.3796 8.74238 22.2536 9.15975C22.0028 10.3073 19.6042 13.6856 19.6042 13.6856C19.395 14.0197 19.3118 14.1863 19.6042 14.562C19.8135 14.8545 20.5009 15.4384 20.9599 15.9806C21.8059 16.9324 22.4438 17.7345 22.6215 18.288C22.7857 18.8438 22.5034 19.125 21.9409 19.125Z" fill="#AA9784"/>
</svg>
