<svg width="27" height="28" viewBox="0 0 27 28" fill="none" xmlns="http://www.w3.org/2000/svg">
<path fill-rule="evenodd" clip-rule="evenodd" d="M23.0673 3.94289C20.5284 1.40172 17.1529 0.00113042 13.5571 0C6.14721 0 0.116433 6.02964 0.113042 13.4429C0.111911 15.8123 0.731379 18.1251 1.90814 20.1644L0 27.13L7.12615 25.2603C9.08968 26.3319 11.3008 26.896 13.5503 26.8971H13.556C20.9647 26.8971 26.9966 20.8664 27 13.4531C27.0023 9.86175 25.6051 6.48294 23.0673 3.94289ZM13.5571 24.6261H13.5526C11.5472 24.6261 9.58141 24.0869 7.86544 23.0684L7.45736 22.8265L3.22847 23.9354L4.35776 19.8117L4.09211 19.3889C2.973 17.6096 2.38292 15.5534 2.38405 13.4429C2.38631 7.28214 7.39971 2.26988 13.5627 2.26988C16.547 2.26988 19.3527 3.43421 21.4621 5.54582C23.5714 7.65857 24.7324 10.4654 24.7313 13.4508C24.7279 19.6139 19.7156 24.6261 13.5571 24.6261ZM19.6862 16.2577C19.3505 16.0892 17.6989 15.2764 17.3903 15.1645C17.0829 15.0526 16.859 14.9961 16.6341 15.3318C16.4091 15.6676 15.767 16.425 15.5704 16.6499C15.3748 16.8737 15.1781 16.902 14.8424 16.7336C14.5066 16.5651 13.4237 16.2113 12.1407 15.0662C11.1425 14.1754 10.4677 13.0755 10.2721 12.7387C10.0765 12.4018 10.2517 12.2209 10.419 12.0536C10.5705 11.9033 10.7548 11.6614 10.9232 11.4647C11.0928 11.2703 11.1482 11.1301 11.2612 10.9051C11.3731 10.6813 11.3177 10.4846 11.2329 10.3162C11.1482 10.1489 10.4767 8.49508 10.1975 7.82248C9.92506 7.16684 9.64811 7.25614 9.44124 7.24597C9.24568 7.2358 9.02185 7.23467 8.7969 7.23467C8.57308 7.23467 8.20908 7.31832 7.90161 7.65518C7.59414 7.99204 6.72598 8.80481 6.72598 10.4575C6.72598 12.1113 7.92987 13.7086 8.09717 13.9324C8.26447 14.1562 10.4654 17.5497 13.8352 19.0046C14.6366 19.3505 15.2629 19.5573 15.7501 19.7122C16.5549 19.9677 17.2875 19.9315 17.8662 19.8456C18.5117 19.7495 19.8535 19.0328 20.1339 18.2483C20.4142 17.4638 20.4142 16.7901 20.3294 16.651C20.2458 16.5097 20.0219 16.4261 19.6862 16.2577Z" fill="#AA9784"/>
</svg>
